<svg width="125" height="114" viewBox="0 0 125 114" fill="none" xmlns="http://www.w3.org/2000/svg">
<g filter="url(#filter0_bii_569_141207)">
<path d="M3.09178 67.8282C-0.767571 61.1258 -0.767573 52.8742 3.09178 46.1718L23.423 10.8632C27.2932 4.14198 34.4559 4.0853e-07 42.2087 5.00981e-07L82.7905 9.84914e-07C90.5433 1.07737e-06 97.706 4.14198 101.576 10.8632L121.907 46.1718C125.767 52.8743 125.767 61.1257 121.907 67.8282L101.576 103.137C97.706 109.858 90.5433 114 82.7905 114L42.2087 114C34.4559 114 27.2932 109.858 23.423 103.137L3.09178 67.8282Z" fill="url(#paint0_linear_569_141207)"/>
<path d="M3.95335 67.3321C0.270823 60.9367 0.270821 53.0633 3.95334 46.6679L24.2846 11.3593C27.9774 4.9461 34.8117 0.994187 42.2087 0.994187L82.7905 0.994187C90.1875 0.994187 97.0218 4.9461 100.715 11.3593L121.046 46.6679C124.728 53.0633 124.728 60.9367 121.046 67.3321L100.715 102.641C97.0218 109.054 90.1875 113.006 82.7905 113.006L42.2087 113.006C34.8117 113.006 27.9774 109.054 24.2846 102.641L3.95335 67.3321Z" stroke="#E9BE5C" stroke-width="1.98837"/>
</g>
<path d="M87.5944 48.9399C86.4638 48.7757 85.3849 48.3586 84.4379 47.7196C83.4909 47.0805 82.7003 46.2361 82.1249 45.2492C81.5495 44.2622 81.2041 43.1582 81.1146 42.0193C81.025 40.8804 81.1935 39.736 81.6075 38.6712C81.8707 37.9751 81.9095 37.2141 81.7184 36.4949C81.5273 35.7756 81.1159 35.1342 80.5419 34.6606C78.0077 32.5325 75.1232 30.8608 72.0169 29.7199C71.3096 29.4572 70.5374 29.4244 69.8103 29.6261C69.0832 29.8279 68.4383 30.254 67.9675 30.8437C67.259 31.7498 66.3533 32.4826 65.3194 32.9866C64.2854 33.4906 63.1503 33.7525 62 33.7525C60.8498 33.7525 59.7146 33.4906 58.6807 32.9866C57.6467 32.4826 56.7411 31.7498 56.0325 30.8437C55.5618 30.254 54.9169 29.8279 54.1898 29.6261C53.4627 29.4244 52.6905 29.4572 51.9832 29.7199C49.115 30.7733 46.4334 32.2776 44.0394 34.1762C43.436 34.6539 43.0013 35.3123 42.7991 36.0549C42.5969 36.7975 42.6377 37.5854 42.9157 38.3031C43.3628 39.396 43.5475 40.5785 43.455 41.7557C43.3625 42.9329 42.9955 44.0721 42.3832 45.0818C41.771 46.0915 40.9306 46.9437 39.9296 47.57C38.9285 48.1962 37.7946 48.5792 36.6188 48.6881C35.8554 48.7697 35.1384 49.0942 34.5734 49.614C34.0083 50.1337 33.6251 50.8211 33.48 51.5749C33.1193 53.3607 32.9375 55.1781 32.9375 56.9999C32.9349 58.5252 33.058 60.0481 33.3057 61.5531C33.4289 62.3311 33.8051 63.0469 34.3759 63.5897C34.9468 64.1326 35.6805 64.4722 36.4638 64.5562C37.6654 64.669 38.8226 65.0679 39.8383 65.7197C40.8541 66.3714 41.699 67.257 42.3023 68.3023C42.9056 69.3476 43.2497 70.5223 43.3059 71.7279C43.362 72.9335 43.1286 74.135 42.625 75.2318C42.2955 75.9453 42.2138 76.7484 42.3928 77.5136C42.5718 78.2788 43.0013 78.9623 43.6132 79.4556C46.1321 81.5449 48.9889 83.1896 52.0607 84.3187C52.4535 84.4548 52.8656 84.5267 53.2813 84.5318C53.8512 84.5306 54.4126 84.3927 54.9183 84.1298C55.4239 83.8668 55.8592 83.4864 56.1875 83.0206C56.8781 82.0145 57.8038 81.1921 58.8842 80.6248C59.9647 80.0576 61.1672 79.7626 62.3875 79.7656C63.5699 79.7671 64.7356 80.0446 65.7918 80.5761C66.848 81.1075 67.7655 81.8782 68.4713 82.8268C68.9408 83.4579 69.6058 83.916 70.3627 84.1298C71.1197 84.3435 71.9261 84.301 72.6563 84.0087C75.4651 82.8783 78.0799 81.3159 80.4063 79.3781C80.9907 78.8949 81.4068 78.2389 81.5948 77.5043C81.7828 76.7697 81.733 75.9944 81.4525 75.2899C80.9968 74.2111 80.7981 73.0411 80.8721 71.8723C80.9461 70.7035 81.2908 69.5679 81.8789 68.5552C82.467 67.5424 83.2825 66.6802 84.2609 66.0366C85.2394 65.3931 86.354 64.9857 87.5169 64.8468C88.271 64.7425 88.9722 64.4009 89.5191 63.8714C90.066 63.342 90.4302 62.6521 90.5588 61.9018C90.87 60.2858 91.0385 58.6455 91.0625 56.9999C91.0629 55.2642 90.9007 53.5323 90.5782 51.8268C90.4473 51.0931 90.0886 50.4192 89.553 49.901C89.0174 49.3828 88.3321 49.0465 87.5944 48.9399ZM71.6875 56.9999C71.6875 58.916 71.1194 60.7889 70.0549 62.382C68.9904 63.9751 67.4774 65.2168 65.7073 65.95C63.9371 66.6833 61.9893 66.8751 60.1101 66.5013C58.2309 66.1275 56.5048 65.2049 55.1499 63.85C53.7951 62.4952 52.8725 60.7691 52.4987 58.8899C52.1249 57.0107 52.3167 55.0629 53.05 53.2927C53.7832 51.5225 55.0249 50.0096 56.618 48.9451C58.2111 47.8806 60.084 47.3124 62 47.3124C64.5693 47.3124 67.0334 48.3331 68.8501 50.1498C70.6669 51.9666 71.6875 54.4307 71.6875 56.9999Z" fill="#E9BE5C"/>
<defs>
<filter id="filter0_bii_569_141207" x="-10.7166" y="-10.9139" width="146.432" height="135.828" filterUnits="userSpaceOnUse" color-interpolation-filters="sRGB">
<feFlood flood-opacity="0" result="BackgroundImageFix"/>
<feGaussianBlur in="BackgroundImageFix" stdDeviation="5.45694"/>
<feComposite in2="SourceAlpha" operator="in" result="effect1_backgroundBlur_569_141207"/>
<feBlend mode="normal" in="SourceGraphic" in2="effect1_backgroundBlur_569_141207" result="shape"/>
<feColorMatrix in="SourceAlpha" type="matrix" values="0 0 0 0 0 0 0 0 0 0 0 0 0 0 0 0 0 0 127 0" result="hardAlpha"/>
<feOffset dy="1.67906"/>
<feGaussianBlur stdDeviation="0.839529"/>
<feComposite in2="hardAlpha" operator="arithmetic" k2="-1" k3="1"/>
<feColorMatrix type="matrix" values="0 0 0 0 1 0 0 0 0 1 0 0 0 0 1 0 0 0 0.15 0"/>
<feBlend mode="normal" in2="shape" result="effect2_innerShadow_569_141207"/>
<feColorMatrix in="SourceAlpha" type="matrix" values="0 0 0 0 0 0 0 0 0 0 0 0 0 0 0 0 0 0 127 0" result="hardAlpha"/>
<feOffset/>
<feGaussianBlur stdDeviation="14.272"/>
<feComposite in2="hardAlpha" operator="arithmetic" k2="-1" k3="1"/>
<feColorMatrix type="matrix" values="0 0 0 0 1 0 0 0 0 1 0 0 0 0 1 0 0 0 0.05 0"/>
<feBlend mode="normal" in2="effect2_innerShadow_569_141207" result="effect3_innerShadow_569_141207"/>
</filter>
<linearGradient id="paint0_linear_569_141207" x1="0.197266" y1="57" x2="124.802" y2="57" gradientUnits="userSpaceOnUse">
<stop stop-color="#FBFBFB"/>
<stop offset="1" stop-color="#F5F5F5"/>
</linearGradient>
</defs>
</svg>
