<svg width="20" height="16" viewBox="0 0 20 16" fill="white" xmlns="http://www.w3.org/2000/svg">
<path d="M16.9307 1.74385C15.6558 1.16886 14.2892 0.743874 12.86 0.502214C12.8473 0.499771 12.8341 0.501345 12.8223 0.50672C12.8105 0.512095 12.8007 0.521004 12.7942 0.532213C12.6192 0.839705 12.4242 1.24053 12.2875 1.55718C10.7718 1.33072 9.23089 1.33072 7.71518 1.55718C7.56296 1.20624 7.39131 0.864057 7.20103 0.532213C7.19458 0.520866 7.18482 0.511755 7.17306 0.506098C7.16129 0.50044 7.14809 0.498504 7.13519 0.500548C5.7069 0.742207 4.34028 1.1672 3.06448 1.74301C3.0535 1.74762 3.0442 1.75547 3.03781 1.76551C0.444554 5.5779 -0.266258 9.29613 0.0828981 12.9677C0.0838697 12.9767 0.086661 12.9854 0.091102 12.9933C0.095543 13.0011 0.101541 13.008 0.108731 13.0135C1.62235 14.1155 3.31059 14.955 5.10275 15.4968C5.11525 15.5006 5.12861 15.5006 5.1411 15.4968C5.15358 15.4929 5.16461 15.4853 5.17275 15.4751C5.5584 14.9594 5.90014 14.4122 6.19439 13.8393C6.19847 13.8315 6.20083 13.8229 6.20129 13.8141C6.20175 13.8052 6.20032 13.7964 6.19708 13.7882C6.19384 13.78 6.18887 13.7726 6.18251 13.7664C6.17615 13.7603 6.16855 13.7556 6.16022 13.7527C5.62191 13.5499 5.10032 13.3053 4.60027 13.021C4.59128 13.0159 4.58371 13.0086 4.57823 12.9998C4.57275 12.9911 4.56954 12.9811 4.56888 12.9707C4.56822 12.9604 4.57013 12.9501 4.57445 12.9407C4.57876 12.9313 4.58534 12.9231 4.5936 12.9169C4.6986 12.8394 4.80359 12.7585 4.90359 12.6777C4.91259 12.6704 4.92344 12.6658 4.93491 12.6643C4.94639 12.6629 4.95805 12.6646 4.96859 12.6694C8.241 14.1393 11.7851 14.1393 15.0191 12.6694C15.0297 12.6643 15.0415 12.6623 15.0531 12.6637C15.0648 12.665 15.0758 12.6696 15.085 12.6769C15.185 12.7585 15.2891 12.8394 15.395 12.9169C15.4033 12.923 15.41 12.931 15.4144 12.9404C15.4189 12.9497 15.421 12.96 15.4205 12.9703C15.42 12.9806 15.4169 12.9906 15.4116 12.9995C15.4063 13.0083 15.3988 13.0157 15.39 13.021C14.8916 13.3077 14.3733 13.5502 13.8292 13.7518C13.8208 13.7549 13.8132 13.7596 13.8068 13.7659C13.8005 13.7721 13.7955 13.7796 13.7923 13.7878C13.789 13.7961 13.7876 13.805 13.7881 13.8139C13.7886 13.8228 13.7909 13.8314 13.795 13.8393C14.095 14.4118 14.4383 14.9568 14.8158 15.4743C14.8237 15.4849 14.8346 15.4928 14.8471 15.497C14.8596 15.5012 14.8732 15.5014 14.8858 15.4976C16.681 14.9573 18.372 14.1175 19.8873 13.0135C19.8947 13.0084 19.9009 13.0017 19.9055 12.9939C19.9101 12.9861 19.913 12.9775 19.914 12.9685C20.3306 8.72364 19.2157 5.03542 16.9566 1.76718C16.951 1.75656 16.9419 1.74828 16.9307 1.74385ZM6.68354 10.7319C5.69857 10.7319 4.88609 9.84111 4.88609 8.74864C4.88609 7.65534 5.68274 6.76537 6.68354 6.76537C7.69184 6.76537 8.49682 7.66284 8.48099 8.74864C8.48099 9.84194 7.68435 10.7319 6.68354 10.7319ZM13.3292 10.7319C12.3434 10.7319 11.5317 9.84111 11.5317 8.74864C11.5317 7.65534 12.3275 6.76537 13.3292 6.76537C14.3375 6.76537 15.1425 7.66284 15.1266 8.74864C15.1266 9.84194 14.3383 10.7319 13.3292 10.7319Z"/>
</svg>
