<svg width="40" height="41" viewBox="0 0 40 41" fill="black" xmlns="http://www.w3.org/2000/svg">
<path d="M27.293 13.8513C29.65 17.3381 30.814 21.2712 30.3788 25.799C30.377 25.8182 30.3671 25.8358 30.3514 25.8473C28.5666 27.166 26.8373 27.9663 25.1322 28.4971C25.119 28.5011 25.1048 28.5009 25.0916 28.4964C25.0785 28.492 25.067 28.4835 25.0589 28.4721C24.665 27.9207 24.3071 27.3393 23.9935 26.7287C23.9755 26.6928 23.992 26.6495 24.029 26.6353C24.5975 26.4198 25.138 26.1615 25.6579 25.8557C25.6988 25.8316 25.7015 25.7725 25.6636 25.7442C25.5533 25.6617 25.444 25.5751 25.3394 25.4885C25.3198 25.4725 25.2935 25.4693 25.2713 25.4801C21.8959 27.0484 18.1983 27.0484 14.783 25.4801C14.7609 25.4701 14.7345 25.4735 14.7155 25.4893C14.6111 25.5759 14.5016 25.6617 14.3923 25.7442C14.3544 25.7725 14.3576 25.8316 14.3988 25.8557C14.9187 26.1557 15.4592 26.4198 16.0269 26.6363C16.0636 26.6505 16.0811 26.6928 16.0629 26.7287C15.7561 27.3401 15.3982 27.9215 14.9969 28.4729C14.9795 28.4952 14.9508 28.5055 14.9236 28.4971C13.2267 27.9663 11.4974 27.166 9.71252 25.8473C9.69765 25.8358 9.68696 25.8174 9.68539 25.7982C9.32174 21.8817 10.0629 17.9161 12.7683 13.8505C12.7749 13.8398 12.7848 13.8314 12.7963 13.8264C14.1275 13.2116 15.5536 12.7594 17.0442 12.5011C17.0714 12.4969 17.0985 12.5095 17.1126 12.5337C17.2968 12.8618 17.5073 13.2825 17.6497 13.6264C19.2209 13.3849 20.8167 13.3849 22.4208 13.6264C22.5632 13.2899 22.7664 12.8618 22.9498 12.5337C22.9563 12.5217 22.9665 12.5121 22.9787 12.5062C22.991 12.5004 23.0048 12.4986 23.0182 12.5011C24.5095 12.7602 25.9357 13.2124 27.2659 13.8264C27.2776 13.8314 27.2873 13.8398 27.293 13.8513ZM18.4485 21.298C18.4649 20.1401 17.626 19.1821 16.5729 19.1821C15.5283 19.1821 14.6975 20.1317 14.6975 21.298C14.6975 22.4639 15.5448 23.4136 16.5729 23.4136C17.6176 23.4136 18.4485 22.4639 18.4485 21.298ZM25.3829 21.298C25.3994 20.1401 24.5604 19.1821 23.5075 19.1821C22.4628 19.1821 21.6319 20.1317 21.6319 21.298C21.6319 22.4639 22.4792 23.4136 23.5075 23.4136C24.5604 23.4136 25.3829 22.4639 25.3829 21.298Z"/>
</svg>
