<svg width="42" height="39" viewBox="0 0 42 39" fill="none" xmlns="http://www.w3.org/2000/svg">
<g filter="url(#filter0_bii_323_26329)">
<path d="M0.975643 23.1094C-0.325214 20.8753 -0.325214 18.1247 0.975643 15.8906L7.82861 4.12105C9.13311 1.88066 11.5474 0.500001 14.1606 0.500001L27.8394 0.500001C30.4526 0.500001 32.8669 1.88066 34.1714 4.12105L41.0244 15.8906C42.3252 18.1247 42.3252 20.8752 41.0244 23.1094L34.1714 34.8789C32.8669 37.1193 30.4526 38.5 27.8394 38.5L14.1606 38.5C11.5474 38.5 9.13311 37.1193 7.82861 34.8789L0.975643 23.1094Z" fill="#19191E"/>
<path d="M2.46832 22.2403C1.48026 20.5433 1.48026 18.4567 2.46832 16.7597L9.32129 4.99018C10.3134 3.28635 12.1562 2.22727 14.1606 2.22727L27.8394 2.22727C29.8438 2.22727 31.6866 3.28635 32.6787 4.99019L39.5317 16.7597C40.5197 18.4567 40.5197 20.5433 39.5317 22.2403L32.6787 34.0098C31.6866 35.7136 29.8438 36.7727 27.8394 36.7727L14.1606 36.7727C12.1562 36.7727 10.3134 35.7136 9.32129 34.0098L2.46832 22.2403Z" stroke="black" stroke-width="3.45455"/>
</g>
<defs>
<filter id="filter0_bii_323_26329" x="-28.4422" y="-27.9422" width="98.8845" height="94.8845" filterUnits="userSpaceOnUse" color-interpolation-filters="sRGB">
<feFlood flood-opacity="0" result="BackgroundImageFix"/>
<feGaussianBlur in="BackgroundImageFix" stdDeviation="14.2211"/>
<feComposite in2="SourceAlpha" operator="in" result="effect1_backgroundBlur_323_26329"/>
<feBlend mode="normal" in="SourceGraphic" in2="effect1_backgroundBlur_323_26329" result="shape"/>
<feColorMatrix in="SourceAlpha" type="matrix" values="0 0 0 0 0 0 0 0 0 0 0 0 0 0 0 0 0 0 127 0" result="hardAlpha"/>
<feOffset dy="4.37573"/>
<feGaussianBlur stdDeviation="2.18786"/>
<feComposite in2="hardAlpha" operator="arithmetic" k2="-1" k3="1"/>
<feColorMatrix type="matrix" values="0 0 0 0 1 0 0 0 0 1 0 0 0 0 1 0 0 0 0.15 0"/>
<feBlend mode="normal" in2="shape" result="effect2_innerShadow_323_26329"/>
<feColorMatrix in="SourceAlpha" type="matrix" values="0 0 0 0 0 0 0 0 0 0 0 0 0 0 0 0 0 0 127 0" result="hardAlpha"/>
<feOffset/>
<feGaussianBlur stdDeviation="37.1937"/>
<feComposite in2="hardAlpha" operator="arithmetic" k2="-1" k3="1"/>
<feColorMatrix type="matrix" values="0 0 0 0 1 0 0 0 0 1 0 0 0 0 1 0 0 0 0.05 0"/>
<feBlend mode="normal" in2="effect2_innerShadow_323_26329" result="effect3_innerShadow_323_26329"/>
</filter>
</defs>
</svg>
