<svg width="36" height="33" viewBox="0 0 36 33" fill="none" xmlns="http://www.w3.org/2000/svg">
<g filter="url(#filter0_bii_689_299844)">
<path d="M1.78689 18.9571C0.868656 17.3697 0.868655 15.416 1.78689 13.8286L7.66086 3.67407C8.58196 2.08173 10.2883 1.09821 12.1377 1.09821L23.8623 1.09821C25.7117 1.09821 27.418 2.08173 28.3391 3.67407L34.2131 13.8286C35.1313 15.416 35.1313 17.3697 34.2131 18.9571L28.3391 29.1116C27.418 30.704 25.7117 31.6875 23.8623 31.6875L12.1377 31.6875C10.2883 31.6875 8.58196 30.704 7.66086 29.1116L1.78689 18.9571Z" stroke="#E9BE5C" stroke-width="2.19643"/>
</g>
<g clip-path="url(#clip0_689_299844)">
<path d="M24.5296 6.46951C24.3329 6.38661 24.1063 6.43295 23.9549 6.58384L23.5182 7.02055C23.1199 7.4182 22.7282 7.48405 22.2184 7.48405C20.3704 7.48405 18.7832 8.55607 17.9998 10.1014C17.2181 8.55952 15.6931 7.48405 13.6004 7.48405C13.1776 7.48405 12.7806 7.31924 12.4814 7.02055L12.0447 6.5838C11.8933 6.43291 11.6683 6.38759 11.47 6.46947C11.2728 6.55082 11.1445 6.74345 11.1445 6.95663V8.01129C11.1445 10.6284 13.2734 12.7573 15.8905 12.7573H17.4725V14.9547C15.8243 15.0406 14.3085 15.531 14.3085 16.5189C14.3085 17.6116 16.1624 18.1009 17.9998 18.1009C19.8372 18.1009 21.6911 17.6116 21.6911 16.5189C21.6911 15.5311 20.1753 15.0407 18.5271 14.9547V12.7573H20.1091C22.7262 12.7573 24.8551 10.6284 24.8551 8.01129V6.95663C24.855 6.74345 24.7268 6.55086 24.5296 6.46951Z" fill="#E9BE5C"/>
<path d="M17.9999 21.2645C16.3882 21.2645 15.1297 20.9493 14.3086 20.4027V20.7372C14.3086 21.83 16.1625 22.3192 17.9999 22.3192C19.8373 22.3192 21.6912 21.83 21.6912 20.7372V20.4027C20.8702 20.9493 19.6116 21.2645 17.9999 21.2645Z" fill="#E9BE5C"/>
<path d="M17.9988 23.3741C16.387 23.3741 15.1285 23.0589 14.3075 22.5123C14.3075 22.6883 14.2876 22.9101 14.3539 23.0595C14.5857 23.9985 16.2894 24.4287 17.9988 24.4287C19.2664 24.4287 21.6901 24.1075 21.6901 22.8467V22.5123C20.869 23.0589 19.6105 23.3741 17.9988 23.3741Z" fill="#E9BE5C"/>
<path d="M17.9999 19.1551C16.3882 19.1551 15.1297 18.8399 14.3086 18.2933V18.6278C14.3086 19.7206 16.1625 20.2098 17.9999 20.2098C19.8373 20.2098 21.6912 19.7206 21.6912 18.6278V18.2933C20.8702 18.84 19.6116 19.1551 17.9999 19.1551Z" fill="#E9BE5C"/>
<path d="M12.7265 15.9913C10.8891 15.9913 9 16.4805 9 17.5733C9 18.666 10.889 19.1553 12.7265 19.1553C12.903 19.1553 13.0787 19.1466 13.2538 19.1374V16.0091C13.0787 16 12.903 15.9913 12.7265 15.9913Z" fill="#E9BE5C"/>
<path d="M23.2734 15.9916C23.0969 15.9915 22.9212 16.0003 22.7461 16.0094V19.1377C22.9212 19.1469 23.0969 19.1555 23.2734 19.1555C25.1108 19.1555 26.9999 18.6663 26.9999 17.5735C26.9999 16.4808 25.1108 15.9916 23.2734 15.9916Z" fill="#E9BE5C"/>
<path d="M12.7265 20.2098C11.1147 20.2098 9.82108 19.8946 9 19.348V19.6825C9 20.7753 10.889 21.2645 12.7265 21.2645C12.903 21.2645 13.0787 21.2558 13.2538 21.2467V20.1831C13.0772 20.1914 12.9126 20.2098 12.7265 20.2098Z" fill="#E9BE5C"/>
<path d="M12.7265 22.3192C11.1147 22.3192 9.82108 22.004 9 21.4574V21.7919C9 22.8846 10.8891 23.3738 12.7265 23.3738C12.903 23.3738 13.0787 23.3652 13.2538 23.356V22.2925C13.0772 22.3008 12.9126 22.3192 12.7265 22.3192Z" fill="#E9BE5C"/>
<path d="M23.2734 20.21C23.0873 20.21 22.9228 20.1916 22.7461 20.1833V21.2469C22.9212 21.256 23.0969 21.2647 23.2734 21.2647C25.1108 21.2647 26.9999 20.7754 26.9999 19.6827V19.3482C26.1788 19.8949 24.8851 20.21 23.2734 20.21Z" fill="#E9BE5C"/>
<path d="M23.2734 22.3192C23.0873 22.3192 22.9228 22.3008 22.7461 22.2925V23.356C22.9212 23.3652 23.0969 23.3739 23.2734 23.3739C25.1108 23.3739 26.9999 22.8846 26.9999 21.7919V21.4574C26.1788 22.004 24.8851 22.3192 23.2734 22.3192Z" fill="#E9BE5C"/>
</g>
<defs>
<filter id="filter0_bii_689_299844" x="-18.0838" y="-18.0838" width="72.1676" height="68.9533" filterUnits="userSpaceOnUse" color-interpolation-filters="sRGB">
<feFlood flood-opacity="0" result="BackgroundImageFix"/>
<feGaussianBlur in="BackgroundImageFix" stdDeviation="9.0419"/>
<feComposite in2="SourceAlpha" operator="in" result="effect1_backgroundBlur_689_299844"/>
<feBlend mode="normal" in="SourceGraphic" in2="effect1_backgroundBlur_689_299844" result="shape"/>
<feColorMatrix in="SourceAlpha" type="matrix" values="0 0 0 0 0 0 0 0 0 0 0 0 0 0 0 0 0 0 127 0" result="hardAlpha"/>
<feOffset dy="2.78212"/>
<feGaussianBlur stdDeviation="1.39106"/>
<feComposite in2="hardAlpha" operator="arithmetic" k2="-1" k3="1"/>
<feColorMatrix type="matrix" values="0 0 0 0 1 0 0 0 0 1 0 0 0 0 1 0 0 0 0.15 0"/>
<feBlend mode="normal" in2="shape" result="effect2_innerShadow_689_299844"/>
<feColorMatrix in="SourceAlpha" type="matrix" values="0 0 0 0 0 0 0 0 0 0 0 0 0 0 0 0 0 0 127 0" result="hardAlpha"/>
<feOffset/>
<feGaussianBlur stdDeviation="23.6481"/>
<feComposite in2="hardAlpha" operator="arithmetic" k2="-1" k3="1"/>
<feColorMatrix type="matrix" values="0 0 0 0 1 0 0 0 0 1 0 0 0 0 1 0 0 0 0.05 0"/>
<feBlend mode="normal" in2="effect2_innerShadow_689_299844" result="effect3_innerShadow_689_299844"/>
</filter>
<clipPath id="clip0_689_299844">
<rect width="18" height="18" fill="white" transform="translate(9 6.42853)"/>
</clipPath>
</defs>
</svg>
