<svg width="63" height="57" viewBox="0 0 63 57" fill="none" xmlns="http://www.w3.org/2000/svg">
<g filter="url(#filter0_bii_29_4956)">
<path d="M1.448 33.9139C-0.482664 30.5627 -0.482665 26.4369 1.44799 23.0857L11.6188 5.43148C13.5549 2.07091 17.138 -7.22749e-05 21.0164 -7.22286e-05L41.3176 -7.19865e-05C45.196 -7.19403e-05 48.7792 2.07091 50.7153 5.43148L60.8861 23.0857C62.8167 26.4369 62.8167 30.5627 60.8861 33.9139L50.7153 51.5681C48.7792 54.9287 45.196 56.9997 41.3176 56.9997L21.0164 56.9997C17.138 56.9997 13.5549 54.9287 11.6188 51.5681L1.448 33.9139Z" fill="#E3AA18"/>
</g>
<path fill-rule="evenodd" clip-rule="evenodd" d="M32.4738 26.6159L20.5015 5.8457L17.3694 7.65112L29.3523 28.4397L17.3694 49.2282L20.5015 51.0336L32.4925 30.2311L56.5336 30.2311V26.6159L32.4738 26.6159ZM31.5085 28.4583L31.4761 28.4397L31.5085 28.421V28.4583Z" fill="url(#paint0_radial_29_4956)"/>
<path fill-rule="evenodd" clip-rule="evenodd" d="M4.98533 33.7213C3.07781 30.5018 3.07781 26.4983 4.98533 23.2788L9.39275 15.8399L13.6136 8.3082C15.4472 5.03629 18.9224 3.02817 22.6728 3.07344L31.2877 3.17744L39.9025 3.07344C43.6529 3.02817 47.1281 5.03629 48.9618 8.30821L53.1826 15.84L57.59 23.2788C59.4975 26.4983 59.4975 30.5018 57.59 33.7213L53.1826 41.1601L48.9617 48.6919C47.1281 51.9638 43.6529 53.9719 39.9025 53.9266L31.2877 53.8226L22.6728 53.9266C18.9224 53.9719 15.4472 51.9638 13.6136 48.6919L9.39275 41.1601L4.98533 33.7213ZM8.09561 25.1216C6.86133 27.2048 6.86133 29.7953 8.0956 31.8785L12.5141 39.3361C12.5215 39.3485 12.5288 39.3611 12.5359 39.3738L16.7673 46.9245C17.9538 49.0416 20.2025 50.341 22.6292 50.3117L31.2658 50.2074C31.2804 50.2072 31.2949 50.2072 31.3095 50.2074L39.9461 50.3117C42.3729 50.341 44.6216 49.0416 45.808 46.9245L50.0395 39.3738C50.0466 39.3611 50.0538 39.3485 50.0612 39.3361L54.4797 31.8785C55.714 29.7953 55.714 27.2048 54.4797 25.1216L50.0612 17.664C50.0538 17.6515 50.0466 17.6389 50.0395 17.6263L45.808 10.0756C44.6216 7.95846 42.3729 6.65909 39.9461 6.68839L31.3095 6.79265C31.2949 6.79282 31.2804 6.79282 31.2658 6.79265L22.6292 6.68839C20.2025 6.65909 17.9538 7.95846 16.7673 10.0756L12.5359 17.6263C12.5288 17.6389 12.5215 17.6515 12.5141 17.664L8.09561 25.1216Z" fill="white"/>
<path fill-rule="evenodd" clip-rule="evenodd" d="M21.9509 14.2473C22.3822 13.477 23.2002 13.0041 24.083 13.0147L31.5822 13.1054L39.0814 13.0147C39.9642 13.0041 40.7822 13.477 41.2135 14.2473L44.8991 20.8303C45.5494 21.9917 45.135 23.4604 43.9735 24.1107C42.8121 24.7609 41.3434 24.3465 40.6931 23.1851L37.7073 17.852L31.6114 17.9256C31.5919 17.9259 31.5725 17.9259 31.5531 17.9256L25.4571 17.852L22.4713 23.1851C22.4619 23.2019 22.4522 23.2187 22.4424 23.2353L19.3263 28.4997L22.4424 33.7641C22.4522 33.7807 22.4619 33.7975 22.4713 33.8143L25.4571 39.1474L31.5531 39.0738C31.5725 39.0735 31.5919 39.0735 31.6114 39.0738L37.7073 39.1474L40.6931 33.8143C41.3434 32.6529 42.8121 32.2385 43.9735 32.8887C45.135 33.539 45.5494 35.0077 44.8991 36.1691L41.2135 42.7521C40.7822 43.5224 39.9642 43.9953 39.0814 43.9847L31.5822 43.894L24.083 43.9847C23.2002 43.9953 22.3822 43.5224 21.9509 42.7521L18.2795 36.1944L14.4516 29.7274C14.0034 28.9703 14.0034 28.0291 14.4516 27.272L18.2795 20.805L21.9509 14.2473Z" fill="white"/>
<path d="M27.1301 23.7541C27.1301 22.8319 28.1237 22.2515 28.927 22.7043L37.5597 27.5708C38.3774 28.0318 38.3774 29.2094 37.5597 29.6703L28.927 34.5368C28.1237 34.9896 27.1301 34.4092 27.1301 33.487V23.7541Z" fill="#644900"/>
<path fill-rule="evenodd" clip-rule="evenodd" d="M31.4373 28.7857C32.3111 28.3029 33.4108 28.6197 33.8937 29.4935L36.4243 34.0728C36.9072 34.9465 36.5903 36.0463 35.7166 36.5292C34.8428 37.012 33.743 36.6952 33.2602 35.8214L30.7295 31.2421C30.2466 30.3684 30.5635 29.2686 31.4373 28.7857Z" fill="#644900"/>
<defs>
<filter id="filter0_bii_29_4956" x="-16.4666" y="-16.4666" width="95.2671" height="89.9329" filterUnits="userSpaceOnUse" color-interpolation-filters="sRGB">
<feFlood flood-opacity="0" result="BackgroundImageFix"/>
<feGaussianBlur in="BackgroundImageFix" stdDeviation="8.23328"/>
<feComposite in2="SourceAlpha" operator="in" result="effect1_backgroundBlur_29_4956"/>
<feBlend mode="normal" in="SourceGraphic" in2="effect1_backgroundBlur_29_4956" result="shape"/>
<feColorMatrix in="SourceAlpha" type="matrix" values="0 0 0 0 0 0 0 0 0 0 0 0 0 0 0 0 0 0 127 0" result="hardAlpha"/>
<feOffset dy="2.53332"/>
<feGaussianBlur stdDeviation="1.26666"/>
<feComposite in2="hardAlpha" operator="arithmetic" k2="-1" k3="1"/>
<feColorMatrix type="matrix" values="0 0 0 0 1 0 0 0 0 1 0 0 0 0 1 0 0 0 0.15 0"/>
<feBlend mode="normal" in2="shape" result="effect2_innerShadow_29_4956"/>
<feColorMatrix in="SourceAlpha" type="matrix" values="0 0 0 0 0 0 0 0 0 0 0 0 0 0 0 0 0 0 127 0" result="hardAlpha"/>
<feOffset/>
<feGaussianBlur stdDeviation="21.5332"/>
<feComposite in2="hardAlpha" operator="arithmetic" k2="-1" k3="1"/>
<feColorMatrix type="matrix" values="0 0 0 0 1 0 0 0 0 1 0 0 0 0 1 0 0 0 0.05 0"/>
<feBlend mode="normal" in2="effect2_innerShadow_29_4956" result="effect3_innerShadow_29_4956"/>
</filter>
<radialGradient id="paint0_radial_29_4956" cx="0" cy="0" r="1" gradientUnits="userSpaceOnUse" gradientTransform="translate(30.602 28.4234) rotate(-56.2807) scale(26.5685 26.552)">
<stop stop-color="#FECB3D" stop-opacity="0"/>
<stop offset="1" stop-color="white"/>
</radialGradient>
</defs>
</svg>
