<svg width="97" height="43" viewBox="0 0 97 43" fill="none" xmlns="http://www.w3.org/2000/svg">
<path d="M1 3.5C0.723858 3.5 0.5 3.72386 0.5 4C0.5 4.27614 0.723858 4.5 1 4.5V3.5ZM96.3536 4.35355C96.5488 4.15829 96.5488 3.84171 96.3536 3.64645L93.1716 0.464466C92.9763 0.269204 92.6597 0.269204 92.4645 0.464466C92.2692 0.659728 92.2692 0.976311 92.4645 1.17157L95.2929 4L92.4645 6.82843C92.2692 7.02369 92.2692 7.34027 92.4645 7.53553C92.6597 7.7308 92.9763 7.7308 93.1716 7.53553L96.3536 4.35355ZM96.3536 15.9871C96.5488 15.7919 96.5488 15.4753 96.3536 15.28L93.1716 12.0981C92.9763 11.9028 92.6597 11.9028 92.4645 12.0981C92.2692 12.2933 92.2692 12.6099 92.4645 12.8052L95.2929 15.6336L92.4645 18.462C92.2692 18.6573 92.2692 18.9739 92.4645 19.1691C92.6597 19.3644 92.9763 19.3644 93.1716 19.1691L96.3536 15.9871ZM52.75 12.8481L52.2993 13.0646L52.3116 13.0901L52.3266 13.1141L52.75 12.8481ZM96.3536 27.7844C96.5488 27.5892 96.5488 27.2726 96.3536 27.0773L93.1716 23.8953C92.9763 23.7001 92.6597 23.7001 92.4645 23.8953C92.2692 24.0906 92.2692 24.4072 92.4645 24.6024L95.2929 27.4309L92.4645 30.2593C92.2692 30.4545 92.2692 30.7711 92.4645 30.9664C92.6597 31.1617 92.9763 31.1617 93.1716 30.9664L96.3536 27.7844ZM96.3536 39.3536C96.5488 39.1583 96.5488 38.8417 96.3536 38.6464L93.1716 35.4645C92.9763 35.2692 92.6597 35.2692 92.4645 35.4645C92.2692 35.6597 92.2692 35.9763 92.4645 36.1716L95.2929 39L92.4645 41.8284C92.2692 42.0237 92.2692 42.3403 92.4645 42.5355C92.6597 42.7308 92.9763 42.7308 93.1716 42.5355L96.3536 39.3536ZM66.5668 36.4491L66.1309 36.694L66.5668 36.4491ZM1 4.5H48.5V3.5H1V4.5ZM48.5 4.5H96V3.5H48.5V4.5ZM54.5 16.1336H96V15.1336H54.5V16.1336ZM48.0493 4.21649L52.2993 13.0646L53.2007 12.6316L48.9507 3.78351L48.0493 4.21649ZM52.3266 13.1141L54.0766 15.8996L54.9234 15.3676L53.1734 12.5821L52.3266 13.1141ZM54.07 15.8887L61.07 27.686L61.93 27.1757L54.93 15.3784L54.07 15.8887ZM61.5 27.9309H96V26.9309H61.5V27.9309ZM61.0641 27.6758L66.1309 36.694L67.0027 36.2042L61.9359 27.1859L61.0641 27.6758ZM70.9259 39.5H96V38.5H70.9259V39.5ZM66.1309 36.694C67.1047 38.4272 68.9379 39.5 70.9259 39.5V38.5C69.2994 38.5 67.7994 37.6223 67.0027 36.2042L66.1309 36.694Z" fill="#D0D0D0"/>
</svg>
