<svg width="97" height="54" viewBox="0 0 97 54" fill="none" xmlns="http://www.w3.org/2000/svg">
<path d="M1 3.75C0.723858 3.75 0.5 3.97386 0.5 4.25C0.5 4.52614 0.723858 4.75 1 4.75V3.75ZM96.3536 4.60355C96.5488 4.40829 96.5488 4.09171 96.3536 3.89645L93.1716 0.714466C92.9763 0.519204 92.6597 0.519204 92.4645 0.714466C92.2692 0.909728 92.2692 1.22631 92.4645 1.42157L95.2929 4.25L92.4645 7.07843C92.2692 7.27369 92.2692 7.59027 92.4645 7.78553C92.6597 7.9808 92.9763 7.9808 93.1716 7.78553L96.3536 4.60355ZM96.3536 16.2371C96.5488 16.0419 96.5488 15.7253 96.3536 15.53L93.1716 12.3481C92.9763 12.1528 92.6597 12.1528 92.4645 12.3481C92.2692 12.5433 92.2692 12.8599 92.4645 13.0552L95.2929 15.8836L92.4645 18.712C92.2692 18.9073 92.2692 19.2239 92.4645 19.4191C92.6597 19.6144 92.9763 19.6144 93.1716 19.4191L96.3536 16.2371ZM52.75 13.0981L52.2993 13.3146L52.3116 13.3401L52.3266 13.3641L52.75 13.0981ZM96.3536 28.0344C96.5488 27.8392 96.5488 27.5226 96.3536 27.3273L93.1716 24.1453C92.9763 23.9501 92.6597 23.9501 92.4645 24.1453C92.2692 24.3406 92.2692 24.6572 92.4645 24.8524L95.2929 27.6809L92.4645 30.5093C92.2692 30.7045 92.2692 31.0211 92.4645 31.2164C92.6597 31.4117 92.9763 31.4117 93.1716 31.2164L96.3536 28.0344ZM68 39.25L67.5641 39.4949L67.5659 39.4981L68 39.25ZM96.3536 39.6036C96.5488 39.4083 96.5488 39.0917 96.3536 38.8964L93.1716 35.7145C92.9763 35.5192 92.6597 35.5192 92.4645 35.7145C92.2692 35.9097 92.2692 36.2263 92.4645 36.4216L95.2929 39.25L92.4645 42.0784C92.2692 42.2737 92.2692 42.5903 92.4645 42.7855C92.6597 42.9808 92.9763 42.9808 93.1716 42.7855L96.3536 39.6036ZM96.3536 50.1036C96.5488 49.9083 96.5488 49.5917 96.3536 49.3964L93.1716 46.2145C92.9763 46.0192 92.6597 46.0192 92.4645 46.2145C92.2692 46.4097 92.2692 46.7263 92.4645 46.9216L95.2929 49.75L92.4645 52.5784C92.2692 52.7737 92.2692 53.0903 92.4645 53.2855C92.6597 53.4808 92.9763 53.4808 93.1716 53.2855L96.3536 50.1036ZM72.5604 47.2307L72.9945 46.9826L72.5604 47.2307ZM1 4.75H48.5V3.75H1V4.75ZM48.5 4.75H96V3.75H48.5V4.75ZM54.5 16.3836H96V15.3836H54.5V16.3836ZM48.0493 4.46649L52.2993 13.3146L53.2007 12.8816L48.9507 4.03351L48.0493 4.46649ZM52.3266 13.3641L54.0766 16.1496L54.9234 15.6176L53.1734 12.8321L52.3266 13.3641ZM54.07 16.1387L61.07 27.936L61.93 27.4257L54.93 15.6284L54.07 16.1387ZM61.5 28.1809H96V27.1809H61.5V28.1809ZM61.0641 27.9258L67.5641 39.4949L68.4359 39.0051L61.9359 27.4359L61.0641 27.9258ZM68 39.75H96V38.75H68V39.75ZM67.5659 39.4981L72.1263 47.4788L72.9945 46.9826L68.4341 39.0019L67.5659 39.4981ZM76.9016 50.25H96V49.25H76.9016V50.25ZM72.1263 47.4788C73.1055 49.1924 74.9279 50.25 76.9016 50.25V49.25C75.2868 49.25 73.7957 48.3847 72.9945 46.9826L72.1263 47.4788Z" fill="#D0D0D0"/>
</svg>
