<svg width="96" height="9" viewBox="0 0 96 9" fill="none" xmlns="http://www.w3.org/2000/svg">
<path d="M1 4C0.723858 4 0.5 4.22386 0.5 4.5C0.5 4.77614 0.723858 5 1 5V4ZM95.8536 4.85355C96.0488 4.65829 96.0488 4.34171 95.8536 4.14645L92.6716 0.964466C92.4763 0.769204 92.1597 0.769204 91.9645 0.964466C91.7692 1.15973 91.7692 1.47631 91.9645 1.67157L94.7929 4.5L91.9645 7.32843C91.7692 7.52369 91.7692 7.84027 91.9645 8.03553C92.1597 8.2308 92.4763 8.2308 92.6716 8.03553L95.8536 4.85355ZM1 5H48.25V4H1V5ZM48.25 5H95.5V4H48.25V5Z" fill="#D0D0D0"/>
</svg>
