<svg width="97" height="19" viewBox="0 0 97 19" fill="none" xmlns="http://www.w3.org/2000/svg">
<path d="M1 3.5C0.723858 3.5 0.5 3.72386 0.5 4C0.5 4.27614 0.723858 4.5 1 4.5V3.5ZM96.3536 4.35355C96.5488 4.15829 96.5488 3.84171 96.3536 3.64645L93.1716 0.464466C92.9763 0.269204 92.6597 0.269204 92.4645 0.464466C92.2692 0.659728 92.2692 0.976311 92.4645 1.17157L95.2929 4L92.4645 6.82843C92.2692 7.02369 92.2692 7.34027 92.4645 7.53553C92.6597 7.7308 92.9763 7.7308 93.1716 7.53553L96.3536 4.35355ZM96.3535 15.3536C96.5488 15.1583 96.5488 14.8417 96.3536 14.6465L93.1717 11.4643C92.9765 11.2691 92.6599 11.2691 92.4646 11.4643C92.2694 11.6596 92.2693 11.9761 92.4646 12.1714L95.2929 15L92.4643 17.8283C92.2691 18.0235 92.2691 18.3401 92.4643 18.5354C92.6596 18.7306 92.9761 18.7307 93.1714 18.5354L96.3535 15.3536ZM52.75 12.3648L52.3042 12.5913L52.3174 12.6172L52.3336 12.6415L52.75 12.3648ZM53.0164 12.7656L53.4328 12.4889L53.0164 12.7656ZM1 4.5H48.5V3.5H1V4.5ZM48.5 4.5H96V3.5H48.5V4.5ZM57.1804 15.4982L96 15.5L96 14.5L57.1805 14.4982L57.1804 15.4982ZM48.0542 4.22648L52.3042 12.5913L53.1958 12.1383L48.9458 3.77352L48.0542 4.22648ZM52.3336 12.6415L52.6 13.0424L53.4328 12.4889L53.1664 12.088L52.3336 12.6415ZM57.1805 14.4982C55.6736 14.4981 54.2668 13.7439 53.4328 12.4889L52.6 13.0424C53.6193 14.5763 55.3387 15.4981 57.1804 15.4982L57.1805 14.4982Z" fill="#D0D0D0"/>
</svg>
