<svg width="97" height="32" viewBox="0 0 97 32" fill="none" xmlns="http://www.w3.org/2000/svg">
<path d="M1 3.78458C0.723858 3.78458 0.5 4.00843 0.5 4.28458C0.5 4.56072 0.723858 4.78458 1 4.78458V3.78458ZM96.3536 4.63813C96.5488 4.44287 96.5488 4.12629 96.3536 3.93102L93.1716 0.749043C92.9763 0.55378 92.6597 0.55378 92.4645 0.749043C92.2692 0.944305 92.2692 1.26089 92.4645 1.45615L95.2929 4.28458L92.4645 7.113C92.2692 7.30827 92.2692 7.62485 92.4645 7.82011C92.6597 8.01537 92.9763 8.01537 93.1716 7.82011L96.3536 4.63813ZM96.3536 16.2717C96.5488 16.0765 96.5488 15.7599 96.3536 15.5646L93.1716 12.3826C92.9763 12.1874 92.6597 12.1874 92.4645 12.3826C92.2692 12.5779 92.2692 12.8945 92.4645 13.0897L95.2929 15.9182L92.4645 18.7466C92.2692 18.9419 92.2692 19.2584 92.4645 19.4537C92.6597 19.649 92.9763 19.649 93.1716 19.4537L96.3536 16.2717ZM52.75 13.1327L52.2993 13.3492L52.3116 13.3747L52.3266 13.3987L52.75 13.1327ZM96.3536 28.069C96.5488 27.8737 96.5488 27.5571 96.3536 27.3619L93.1716 24.1799C92.9763 23.9846 92.6597 23.9846 92.4645 24.1799C92.2692 24.3752 92.2692 24.6917 92.4645 24.887L95.2929 27.7154L92.4645 30.5439C92.2692 30.7391 92.2692 31.0557 92.4645 31.251C92.6597 31.4462 92.9763 31.4462 93.1716 31.251L96.3536 28.069ZM60.0471 25.2669L59.6171 25.522L60.0471 25.2669ZM1 4.78458H48.5V3.78458H1V4.78458ZM48.5 4.78458H96V3.78458H48.5V4.78458ZM54.5 16.4182H96V15.4182H54.5V16.4182ZM48.0493 4.50106L52.2993 13.3492L53.2007 12.9162L48.9507 4.06809L48.0493 4.50106ZM52.3266 13.3987L54.0766 16.1842L54.9234 15.6522L53.1734 12.8667L52.3266 13.3987ZM54.07 16.1733L59.6171 25.522L60.4771 25.0117L54.93 15.663L54.07 16.1733ZM64.3471 28.2154H96V27.2154H64.3471V28.2154ZM59.6171 25.522C60.6079 27.1918 62.4056 28.2154 64.3471 28.2154V27.2154C62.7586 27.2154 61.2878 26.3779 60.4771 25.0117L59.6171 25.522Z" fill="#D0D0D0"/>
</svg>
