<svg width="36" height="33" viewBox="0 0 36 33" fill="none" xmlns="http://www.w3.org/2000/svg">
<g filter="url(#filter0_bii_689_299885)">
<path d="M1.78689 18.9569C0.868656 17.3696 0.868655 15.4159 1.78689 13.8285L7.66086 3.67394C8.58196 2.0816 10.2883 1.09808 12.1377 1.09808L23.8623 1.09808C25.7117 1.09808 27.418 2.0816 28.3391 3.67394L34.2131 13.8285C35.1313 15.4159 35.1313 17.3696 34.2131 18.9569L28.3391 29.1115C27.418 30.7038 25.7117 31.6874 23.8623 31.6874L12.1377 31.6874C10.2883 31.6874 8.58196 30.7038 7.66086 29.1115L1.78689 18.9569Z" stroke="#E9BE5C" stroke-width="2.19643"/>
</g>
<path d="M23.4998 17.8333C23.4512 17.8333 23.4081 17.8462 23.3577 17.848L20.582 13.1015C21.0981 12.59 21.4505 11.9367 21.5946 11.2246C21.7386 10.5125 21.6679 9.77357 21.3913 9.1017C21.1148 8.42983 20.6448 7.85528 20.0411 7.45096C19.4375 7.04664 18.7273 6.83078 18.0007 6.83078C17.2741 6.83078 16.564 7.04664 15.9603 7.45096C15.3566 7.85528 14.8867 8.42983 14.6101 9.1017C14.3335 9.77357 14.2628 10.5125 14.4069 11.2246C14.551 11.9367 14.9034 12.59 15.4194 13.1015L12.652 17.8489C12.5997 17.8462 12.552 17.8333 12.4998 17.8333C11.8135 17.8309 11.1402 18.0212 10.5567 18.3825C9.97318 18.7439 9.50277 19.2617 9.199 19.8771C8.89524 20.4926 8.7703 21.1809 8.83842 21.8639C8.90653 22.5468 9.16496 23.197 9.5843 23.7403C10.0036 24.2836 10.5671 24.6983 11.2105 24.9373C11.8539 25.1762 12.5514 25.2298 13.2237 25.0919C13.8961 24.954 14.5162 24.6301 15.0136 24.1572C15.511 23.6843 15.8656 23.0812 16.0372 22.4167H19.9624C20.1348 23.0793 20.4897 23.6803 20.9865 24.1514C21.4834 24.6225 22.1025 24.9448 22.7733 25.0817C23.4442 25.2186 24.14 25.1647 24.7818 24.926C25.4235 24.6873 25.9855 24.2735 26.4038 23.7314C26.8222 23.1894 27.0801 22.5409 27.1484 21.8596C27.2167 21.1783 27.0926 20.4916 26.7901 19.8773C26.4877 19.263 26.019 18.7458 25.4374 18.3845C24.8558 18.0232 24.1845 17.8323 23.4998 17.8333ZM19.9624 20.5833H16.0372C15.8044 19.682 15.237 18.9032 14.4505 18.4053L17.0107 14.0145C17.6553 14.218 18.347 14.218 18.9916 14.0145L21.5583 18.4017C20.7672 18.8984 20.1962 19.679 19.9624 20.5833Z" fill="#E9BE5C"/>
<defs>
<filter id="filter0_bii_689_299885" x="-18.0838" y="-18.0839" width="72.1676" height="68.9533" filterUnits="userSpaceOnUse" color-interpolation-filters="sRGB">
<feFlood flood-opacity="0" result="BackgroundImageFix"/>
<feGaussianBlur in="BackgroundImageFix" stdDeviation="9.0419"/>
<feComposite in2="SourceAlpha" operator="in" result="effect1_backgroundBlur_689_299885"/>
<feBlend mode="normal" in="SourceGraphic" in2="effect1_backgroundBlur_689_299885" result="shape"/>
<feColorMatrix in="SourceAlpha" type="matrix" values="0 0 0 0 0 0 0 0 0 0 0 0 0 0 0 0 0 0 127 0" result="hardAlpha"/>
<feOffset dy="2.78212"/>
<feGaussianBlur stdDeviation="1.39106"/>
<feComposite in2="hardAlpha" operator="arithmetic" k2="-1" k3="1"/>
<feColorMatrix type="matrix" values="0 0 0 0 1 0 0 0 0 1 0 0 0 0 1 0 0 0 0.15 0"/>
<feBlend mode="normal" in2="shape" result="effect2_innerShadow_689_299885"/>
<feColorMatrix in="SourceAlpha" type="matrix" values="0 0 0 0 0 0 0 0 0 0 0 0 0 0 0 0 0 0 127 0" result="hardAlpha"/>
<feOffset/>
<feGaussianBlur stdDeviation="23.6481"/>
<feComposite in2="hardAlpha" operator="arithmetic" k2="-1" k3="1"/>
<feColorMatrix type="matrix" values="0 0 0 0 1 0 0 0 0 1 0 0 0 0 1 0 0 0 0.05 0"/>
<feBlend mode="normal" in2="effect2_innerShadow_689_299885" result="effect3_innerShadow_689_299885"/>
</filter>
</defs>
</svg>
