<svg width="19" height="18" viewBox="0 0 19 18" xmlns="http://www.w3.org/2000/svg">
<path d="M16.9306 6.65978C16.6024 6.6121 16.2892 6.491 16.0142 6.30547C15.7393 6.11995 15.5098 5.8748 15.3427 5.58827C15.1757 5.30174 15.0754 4.98121 15.0494 4.65056C15.0234 4.31991 15.0723 3.98765 15.1925 3.67853C15.2689 3.47644 15.2802 3.2555 15.2247 3.04669C15.1692 2.83788 15.0498 2.65166 14.8831 2.51415C14.1474 1.89634 13.31 1.411 12.4081 1.07978C12.2028 1.0035 11.9786 0.993964 11.7675 1.05254C11.5564 1.11112 11.3692 1.23483 11.2325 1.40603C11.0268 1.66908 10.7639 1.88184 10.4637 2.02816C10.1635 2.17448 9.83396 2.25053 9.50001 2.25053C9.16607 2.25053 8.83651 2.17448 8.53633 2.02816C8.23615 1.88184 7.97323 1.66908 7.76751 1.40603C7.63084 1.23483 7.44362 1.11112 7.23253 1.05254C7.02144 0.993964 6.79724 1.0035 6.59189 1.07978C5.7592 1.38558 4.98066 1.82232 4.28564 2.37353C4.11044 2.51222 3.98425 2.70336 3.92555 2.91896C3.86684 3.13456 3.8787 3.36329 3.95939 3.57165C4.08919 3.88895 4.14282 4.23226 4.11597 4.57403C4.08913 4.9158 3.98256 5.24652 3.80481 5.53967C3.62707 5.83281 3.38309 6.08022 3.09246 6.26204C2.80183 6.44386 2.47262 6.55504 2.13126 6.58665C1.90964 6.61035 1.70148 6.70458 1.53744 6.85546C1.37339 7.00634 1.26212 7.20591 1.22001 7.42478C1.11527 7.94324 1.06251 8.47085 1.06251 8.99978C1.06174 9.44259 1.09749 9.88472 1.16939 10.3217C1.20517 10.5475 1.31437 10.7553 1.4801 10.9129C1.64583 11.0705 1.85887 11.1691 2.08626 11.1935C2.43512 11.2263 2.77106 11.3421 3.06597 11.5313C3.36088 11.7205 3.60617 11.9776 3.78132 12.2811C3.95646 12.5846 4.05637 12.9256 4.07267 13.2756C4.08897 13.6256 4.02119 13.9745 3.87501 14.2929C3.77935 14.5 3.75562 14.7332 3.80759 14.9554C3.85956 15.1775 3.98426 15.376 4.16189 15.5192C4.8932 16.1257 5.72258 16.6032 6.61439 16.931C6.72843 16.9705 6.84808 16.9914 6.96876 16.9929C7.13423 16.9925 7.29721 16.9525 7.44401 16.8762C7.59082 16.7998 7.71719 16.6894 7.81251 16.5542C8.013 16.2621 8.28174 16.0233 8.59542 15.8586C8.9091 15.6939 9.25823 15.6083 9.61251 15.6092C9.95578 15.6096 10.2942 15.6902 10.6008 15.8445C10.9075 15.9988 11.1739 16.2225 11.3788 16.4979C11.5151 16.6811 11.7081 16.8141 11.9279 16.8762C12.1476 16.9382 12.3818 16.9259 12.5938 16.841C13.4092 16.5128 14.1684 16.0592 14.8438 15.4967C15.0134 15.3564 15.1342 15.1659 15.1888 14.9527C15.2434 14.7394 15.2289 14.5143 15.1475 14.3098C15.0152 13.9966 14.9575 13.6569 14.979 13.3176C15.0005 12.9782 15.1005 12.6485 15.2713 12.3545C15.442 12.0605 15.6788 11.8102 15.9629 11.6233C16.2469 11.4365 16.5705 11.3182 16.9081 11.2779C17.1271 11.2476 17.3306 11.1485 17.4894 10.9947C17.6482 10.841 17.7539 10.6407 17.7913 10.4229C17.8816 9.95373 17.9305 9.47752 17.9375 8.99978C17.9376 8.49586 17.8905 7.99304 17.7969 7.4979C17.7589 7.28489 17.6548 7.08925 17.4993 6.9388C17.3438 6.78834 17.1448 6.69071 16.9306 6.65978ZM12.3125 8.99978C12.3125 9.55604 12.1476 10.0998 11.8385 10.5623C11.5295 11.0248 11.0902 11.3853 10.5763 11.5982C10.0624 11.8111 9.49689 11.8668 8.95132 11.7582C8.40575 11.6497 7.90461 11.3819 7.51127 10.9885C7.11794 10.5952 6.85007 10.094 6.74155 9.54847C6.63303 9.0029 6.68873 8.4374 6.9016 7.92348C7.11447 7.40957 7.47496 6.97031 7.93747 6.66127C8.39998 6.35223 8.94375 6.18728 9.50001 6.18728C10.2459 6.18728 10.9613 6.4836 11.4887 7.01104C12.0162 7.53849 12.3125 8.25386 12.3125 8.99978Z"/>
</svg>
