<svg width="18" height="18" viewBox="0 0 18 18" fill="none" xmlns="http://www.w3.org/2000/svg">
<path d="M10.3594 14.597C10.2467 14.6251 10.1318 14.6501 10.0177 14.6711C9.71958 14.7265 9.52246 15.0133 9.57761 15.3117C9.60484 15.4585 9.68823 15.5808 9.80143 15.6606C9.9181 15.7427 10.0666 15.7798 10.2179 15.7517C10.3537 15.7265 10.4906 15.6968 10.6249 15.6633C10.9194 15.59 11.0987 15.2917 11.0253 14.9975C10.952 14.7029 10.654 14.5237 10.3594 14.597Z" fill="#E9BE5C"/>
<path d="M14.4222 7.23228C14.4606 7.34828 14.5341 7.44297 14.6269 7.5084C14.7646 7.60533 14.9446 7.63794 15.1165 7.58112C15.4046 7.48546 15.5607 7.17479 15.4654 6.88683C15.4219 6.75555 15.3738 6.62387 15.3224 6.49565C15.2097 6.2139 14.8901 6.07672 14.6082 6.18942C14.3266 6.30207 14.1894 6.62176 14.3022 6.9036C14.3453 7.01137 14.3857 7.12199 14.4222 7.23228Z" fill="#E9BE5C"/>
<path d="M12.145 13.8125C12.0481 13.8765 11.948 13.9385 11.8473 13.9965C11.5843 14.1481 11.4943 14.4842 11.6459 14.747C11.687 14.8185 11.7419 14.877 11.805 14.9216C11.9745 15.0409 12.2047 15.0587 12.3963 14.9483C12.5162 14.8792 12.6353 14.8057 12.7507 14.7294C13.0038 14.5622 13.0735 14.2213 12.9062 13.9681C12.7389 13.7148 12.3982 13.6452 12.145 13.8125Z" fill="#E9BE5C"/>
<path d="M15.8065 8.76691C15.7945 8.46364 15.5391 8.2276 15.2357 8.23944C14.9328 8.2514 14.6965 8.50692 14.7084 8.81007C14.713 8.92598 14.7142 9.04361 14.7115 9.1594C14.7072 9.34958 14.8003 9.51911 14.9448 9.621C15.0309 9.68164 15.1354 9.71834 15.2487 9.72092C15.552 9.72765 15.8033 9.48711 15.8101 9.1837C15.8131 9.04535 15.8119 8.90517 15.8065 8.76691Z" fill="#E9BE5C"/>
<path d="M14.3326 12.3671C14.0895 12.1847 13.7454 12.2342 13.5633 12.4769C13.4935 12.5699 13.4201 12.6617 13.3449 12.7501C13.1483 12.9811 13.1761 13.3279 13.407 13.5246C13.4202 13.5358 13.4335 13.546 13.4473 13.5557C13.6769 13.7175 13.9959 13.6803 14.1816 13.4625C14.2714 13.357 14.3589 13.2474 14.4423 13.1363C14.6245 12.8936 14.5752 12.5493 14.3326 12.3671Z" fill="#E9BE5C"/>
<path d="M15.1403 10.3809C14.8507 10.2901 14.5424 10.4513 14.4517 10.7408C14.4169 10.8515 14.3784 10.9626 14.3369 11.0715C14.2457 11.3111 14.3331 11.5747 14.5335 11.716C14.5702 11.7419 14.6107 11.7638 14.6547 11.7804C14.9382 11.8886 15.2556 11.7463 15.3637 11.4627C15.413 11.3333 15.4588 11.2011 15.5002 11.0695C15.5908 10.7799 15.4298 10.4717 15.1403 10.3809Z" fill="#E9BE5C"/>
<path d="M7.96183 14.676C7.47059 14.5878 6.99936 14.4376 6.55251 14.2281C6.54722 14.2254 6.54249 14.2222 6.53694 14.2197C6.43164 14.1702 6.32651 14.1171 6.22462 14.0616C6.22427 14.0612 6.22362 14.0609 6.22307 14.0607C6.03612 13.9577 5.85366 13.8438 5.67641 13.719C3.09175 11.8983 2.47029 8.31426 4.29112 5.72962C4.68705 5.16781 5.16619 4.6991 5.70036 4.32762C5.70694 4.32303 5.71352 4.31848 5.72004 4.31386C7.60236 3.01689 10.1583 2.92948 12.157 4.26224L11.7277 4.8825C11.6084 5.05514 11.6818 5.18094 11.8907 5.16214L13.7554 4.9952C13.9646 4.9764 14.0897 4.79544 14.0334 4.59342L13.5327 2.78928C13.4766 2.58702 13.3331 2.56281 13.2137 2.73543L12.7834 3.35715C11.3166 2.37252 9.55731 1.99706 7.81114 2.29986C7.63527 2.3303 7.46187 2.36755 7.29084 2.41092C7.28952 2.41115 7.28846 2.4113 7.28741 2.41153C7.28079 2.41315 7.2741 2.4153 7.26766 2.41709C5.76191 2.80376 4.44816 3.68198 3.51071 4.935C3.50281 4.94437 3.49467 4.95354 3.48721 4.96373C3.45604 5.00572 3.4251 5.04867 3.39481 5.09163C3.34527 5.16202 3.29644 5.23418 3.24973 5.30634C3.24388 5.31504 3.23941 5.32388 3.2343 5.33266C2.46071 6.53142 2.08758 7.9173 2.15157 9.32821C2.15172 9.33285 2.15145 9.33752 2.15157 9.34228C2.15777 9.48011 2.1687 9.61984 2.18354 9.7574C2.18433 9.76627 2.1863 9.77468 2.1878 9.78355C2.20313 9.92187 2.22238 10.0605 2.2465 10.1991C2.49165 11.6135 3.15882 12.8861 4.15856 13.8764C4.16088 13.8787 4.16329 13.8813 4.16564 13.8837C4.16646 13.8846 4.16737 13.885 4.16816 13.8859C4.43676 14.1508 4.72892 14.3959 5.0435 14.6174C5.86674 15.1975 6.78344 15.5809 7.76792 15.7576C8.06664 15.8113 8.35198 15.6124 8.40557 15.3139C8.45913 15.0151 8.26046 14.7295 7.96183 14.676Z" fill="#E9BE5C"/>
<path d="M8.64102 4.5925C8.39531 4.5925 8.19629 4.7917 8.19629 5.03706V9.16912C8.19629 9.35153 8.29805 9.51869 8.46009 9.60245L12.247 11.5601C12.3122 11.5938 12.382 11.6097 12.4507 11.6097C12.6116 11.6097 12.767 11.5221 12.846 11.3692C12.9586 11.1511 12.8734 10.883 12.6552 10.7703L9.34904 9.06109C9.18701 8.97732 9.08526 8.81016 9.08526 8.62777V5.03706C9.08523 4.7917 8.88644 4.5925 8.64102 4.5925Z" fill="#E9BE5C"/>
</svg>
