<svg width="40" height="41" viewBox="0 0 40 41" fill="black" xmlns="http://www.w3.org/2000/svg">
<path d="M30.1178 14.1063C29.4573 14.3906 28.763 14.5885 28.0519 14.6952C28.3844 14.6382 28.8735 14.0398 29.0682 13.7976C29.3641 13.4323 29.5895 13.0152 29.7331 12.5676C29.7331 12.5344 29.7664 12.4869 29.7331 12.4631C29.7164 12.454 29.6976 12.4492 29.6785 12.4492C29.6594 12.4492 29.6406 12.454 29.6239 12.4631C28.8518 12.8812 28.03 13.2004 27.1781 13.4129C27.1484 13.422 27.1168 13.4228 27.0867 13.4153C27.0566 13.4078 27.0291 13.3922 27.0071 13.3702C26.9408 13.2912 26.8694 13.2167 26.7934 13.147C26.4459 12.8357 26.0517 12.5809 25.6251 12.3919C25.0493 12.1557 24.4274 12.0533 23.8062 12.0927C23.2035 12.1308 22.6151 12.2924 22.0775 12.5676C21.5482 12.8577 21.083 13.2519 20.7098 13.7264C20.3173 14.2148 20.0339 14.7815 19.8787 15.3886C19.7507 15.966 19.7362 16.5628 19.836 17.1458C19.836 17.2455 19.836 17.2597 19.7505 17.2455C16.3644 16.7468 13.5861 15.5453 11.316 12.9665C11.2163 12.8525 11.1641 12.8525 11.0833 12.9665C10.0955 14.4672 10.5752 16.8418 11.8099 18.0148C11.9762 18.1716 12.1471 18.3235 12.3276 18.466C11.7615 18.4258 11.2092 18.2724 10.7034 18.0148C10.6084 17.9531 10.5562 17.9863 10.5514 18.1003C10.538 18.2583 10.538 18.4172 10.5514 18.5752C10.6505 19.3325 10.949 20.0499 11.4162 20.654C11.8835 21.2582 12.5029 21.7273 13.2109 22.0136C13.3835 22.0875 13.5634 22.1432 13.7476 22.1798C13.2235 22.283 12.686 22.299 12.1566 22.2273C12.0427 22.2036 11.9999 22.2653 12.0427 22.3745C12.7408 24.2742 14.2557 24.8536 15.367 25.1765C15.519 25.2003 15.671 25.2003 15.8419 25.2383C15.8419 25.2383 15.8419 25.2383 15.8135 25.2667C15.4858 25.8651 14.1608 26.2688 13.5529 26.4778C12.4433 26.8763 11.2603 27.0286 10.086 26.9242C9.9008 26.8957 9.85806 26.9004 9.81057 26.9242C9.76308 26.9479 9.81057 27.0002 9.86281 27.0477C10.1003 27.2044 10.3377 27.3421 10.5847 27.4751C11.3199 27.8761 12.0971 28.1946 12.9022 28.4249C17.072 29.5742 21.7641 28.7289 24.8938 25.6182C27.3538 23.1771 28.2182 19.81 28.2182 16.4381C28.2182 16.3099 28.3749 16.2339 28.4651 16.1674C29.0875 15.6825 29.6362 15.1098 30.0941 14.4672C30.1733 14.3715 30.214 14.2495 30.208 14.1253C30.208 14.0541 30.208 14.0683 30.1178 14.1063Z"/>
</svg>
