<svg width="19" height="16" viewBox="0 0 19 16" xmlns="http://www.w3.org/2000/svg">
<path d="M5.97721 15.3125C13.1453 15.3125 17.067 9.68509 17.067 4.80646C17.067 4.64825 17.0633 4.48653 17.0558 4.32833C17.8187 3.80566 18.4771 3.15825 19 2.41653C18.2895 2.71601 17.5351 2.9116 16.7627 2.99661C17.576 2.53474 18.185 1.80917 18.4768 0.954386C17.7116 1.38398 16.8748 1.68702 16.0023 1.85052C15.4144 1.25873 14.6371 0.866898 13.7906 0.735599C12.9441 0.6043 12.0754 0.740849 11.319 1.12413C10.5626 1.50742 9.96059 2.11609 9.60596 2.85604C9.25133 3.596 9.16388 4.42602 9.35713 5.21778C7.80781 5.14413 6.29212 4.76284 4.90832 4.09863C3.52452 3.43443 2.30351 2.50214 1.32443 1.3622C0.826816 2.17499 0.674545 3.1368 0.898566 4.05213C1.12259 4.96746 1.70609 5.76765 2.53049 6.29005C1.91158 6.27144 1.30623 6.11357 0.764453 5.8295V5.87521C0.763899 6.72817 1.07516 7.555 1.64533 8.21514C2.2155 8.87528 3.00938 9.32798 3.89203 9.4963C3.31871 9.64491 2.71699 9.66656 2.13342 9.55958C2.38249 10.2931 2.86708 10.9347 3.51957 11.3948C4.17206 11.8549 4.95989 12.1105 5.77311 12.126C4.3925 13.1534 2.68705 13.7107 0.931445 13.708C0.620102 13.7076 0.309066 13.6895 0 13.6539C1.78351 14.7379 3.85821 15.3136 5.97721 15.3125Z" />
</svg>
