<svg width="36" height="32" viewBox="0 0 36 32" fill="none" xmlns="http://www.w3.org/2000/svg">
<g filter="url(#filter0_bii_2858_11209)">
<path d="M1.76787 19.0395C0.683823 17.1581 0.683822 14.8419 1.76787 12.9606L7.47868 3.04938C8.56576 1.16274 10.5777 7.64087e-05 12.7554 7.64347e-05L24.1543 7.65706e-05C26.332 7.65966e-05 28.3439 1.16274 29.431 3.04938L35.1418 12.9606C36.2258 14.8419 36.2258 17.1581 35.1418 19.0395L29.431 28.9507C28.3439 30.8373 26.332 32 24.1543 32L12.7554 32C10.5777 32 8.56576 30.8373 7.47868 28.9507L1.76787 19.0395Z" fill="#E3AA18"/>
</g>
<path fill-rule="evenodd" clip-rule="evenodd" d="M11.7964 5.8757C12.1154 5.32846 12.7205 4.99255 13.3736 5.00013L18.9212 5.0645L24.4688 5.00013C25.1218 4.99255 25.727 5.32846 26.046 5.8757L28.7725 10.552C29.2535 11.377 28.9469 12.4203 28.0877 12.8822C27.2286 13.3441 26.1421 13.0497 25.6611 12.2247C24.2958 9.88311 21.7776 8.45573 19.0673 8.48718L18.9427 8.48862C18.9284 8.48879 18.914 8.48879 18.8996 8.48862L18.7751 8.48718C16.0647 8.45573 13.5465 9.88311 12.1813 12.2247C12.1743 12.2367 12.1672 12.2486 12.1599 12.2604C10.7466 14.5532 10.7466 17.4468 12.1599 19.7396C12.1672 19.7514 12.1743 19.7633 12.1813 19.7753C13.5465 22.1169 16.0647 23.5443 18.7751 23.5128L18.8996 23.5114C18.914 23.5112 18.9284 23.5112 18.9427 23.5114L19.0673 23.5128C21.7776 23.5443 24.2958 22.1169 25.6611 19.7753C26.1421 18.9503 27.2286 18.6559 28.0877 19.1178C28.9469 19.5797 29.2535 20.623 28.7725 21.448L26.046 26.1243C25.727 26.6715 25.1218 27.0075 24.4688 26.9999L18.9212 26.9355L13.3736 26.9999C12.7205 27.0075 12.1154 26.6715 11.7964 26.1243L9.08038 21.466L6.24863 16.8721C5.91712 16.3343 5.91712 15.6657 6.24863 15.1279L9.08039 10.534L11.7964 5.8757Z" fill="white"/>
<path d="M15.626 11.8494C15.626 11.2004 16.3457 10.7918 16.9277 11.1106L23.1817 14.5358C23.7741 14.8602 23.7741 15.6891 23.1817 16.0135L16.9277 19.4387C16.3457 19.7575 15.626 19.3489 15.626 18.6999V11.8494Z" fill="#644900"/>
<path fill-rule="evenodd" clip-rule="evenodd" d="M18.7468 15.3909C19.3798 15.051 20.1766 15.274 20.5264 15.889L22.3597 19.1121C22.7095 19.7271 22.48 20.5012 21.847 20.841C21.214 21.1809 20.4172 20.9579 20.0674 20.3429L18.2341 17.1198C17.8843 16.5048 18.1138 15.7307 18.7468 15.3909Z" fill="#644900"/>
<defs>
<filter id="filter0_bii_2858_11209" x="-25.0452" y="-26" width="87" height="84" filterUnits="userSpaceOnUse" color-interpolation-filters="sRGB">
<feFlood flood-opacity="0" result="BackgroundImageFix"/>
<feGaussianBlur in="BackgroundImageFix" stdDeviation="13"/>
<feComposite in2="SourceAlpha" operator="in" result="effect1_backgroundBlur_2858_11209"/>
<feBlend mode="normal" in="SourceGraphic" in2="effect1_backgroundBlur_2858_11209" result="shape"/>
<feColorMatrix in="SourceAlpha" type="matrix" values="0 0 0 0 0 0 0 0 0 0 0 0 0 0 0 0 0 0 127 0" result="hardAlpha"/>
<feOffset dy="4"/>
<feGaussianBlur stdDeviation="2"/>
<feComposite in2="hardAlpha" operator="arithmetic" k2="-1" k3="1"/>
<feColorMatrix type="matrix" values="0 0 0 0 1 0 0 0 0 1 0 0 0 0 1 0 0 0 0.15 0"/>
<feBlend mode="normal" in2="shape" result="effect2_innerShadow_2858_11209"/>
<feColorMatrix in="SourceAlpha" type="matrix" values="0 0 0 0 0 0 0 0 0 0 0 0 0 0 0 0 0 0 127 0" result="hardAlpha"/>
<feOffset/>
<feGaussianBlur stdDeviation="34"/>
<feComposite in2="hardAlpha" operator="arithmetic" k2="-1" k3="1"/>
<feColorMatrix type="matrix" values="0 0 0 0 1 0 0 0 0 1 0 0 0 0 1 0 0 0 0.05 0"/>
<feBlend mode="normal" in2="effect2_innerShadow_2858_11209" result="effect3_innerShadow_2858_11209"/>
</filter>
</defs>
</svg>
